<svg width="317" height="327" viewBox="0 0 317 327" fill="none" xmlns="http://www.w3.org/2000/svg">
<path fill-rule="evenodd" clip-rule="evenodd" d="M15.3604 13.9369C15.9011 13.8069 16.4485 13.7072 17 13.638V315C17 321.627 22.3726 327 29 327H305C311.627 327 317 321.627 317 315V12C317 5.37258 311.627 0 305 0H29.5H29H25L23.6177 0.135384C21.5547 0.337433 19.5422 0.894302 17.6687 1.78143L15.9563 2.59235C12.9878 3.99799 10.3008 5.93346 8.02711 8.30364L5.82033 10.6041C5.27419 11.1734 4.7709 11.7824 4.3146 12.4259L0 18.5111L4.28515 16.7942C5.09399 16.4701 5.92528 16.2052 6.77248 16.0015L11 14.9852L15.3604 13.9369Z" fill="#FEFAE6"/>
</svg>
